<?xml version="1.0" encoding="UTF-8"?><svg id="Layer_2" xmlns="http://www.w3.org/2000/svg" width="392.13" height="598" viewBox="0 0 392.13 598"><defs><style>.cls-1{fill:#fff;}.cls-2{fill:none;stroke:#fff;stroke-miterlimit:10;stroke-width:4px;}</style></defs><g id="Layer_1-2"><line class="cls-2" x1="173.32" y1="207" x2="173.32" y2="134"/><line class="cls-2" x1="229.32" y1="207" x2="229.32" y2="134"/><polyline class="cls-2" points="229.32 281 229.32 559 173.32 559 173.32 281"/><polyline class="cls-2" points="173.32 60 173.32 2 229.32 2 229.32 60"/><rect class="cls-2" x="137.57" y="559" width="127.5" height="37"/><path class="cls-2" d="M51.67,281H349.31c1.13,0,2.21-.43,3.04-1.19l37.14-34.35c.85-.79,.85-2.14,0-2.92l-37.14-34.35c-.83-.77-1.91-1.19-3.04-1.19H51.07l.6,74Z"/><path class="cls-2" d="M340.46,60H42.82c-1.13,0-2.21,.43-3.04,1.19L2.64,95.54c-.85,.79-.85,2.14,0,2.92l37.14,34.35c.83,.77,1.91,1.19,3.04,1.19H341.07l-.6-74Z"/><g><path class="cls-1" d="M83.82,88.28c0,3.27-.82,5.78-2.47,7.52-1.65,1.75-4.03,2.62-7.15,2.62h-1.43v11.15h-5.72v-30.77h7.81c5.98,0,8.97,3.16,8.97,9.47Zm-11.05,5.18h1.09c1.4,0,2.45-.39,3.14-1.16,.69-.77,1.03-2.03,1.03-3.79,0-1.61-.32-2.81-.95-3.59-.63-.78-1.61-1.17-2.93-1.17h-1.39v9.7Z"/><path class="cls-1" d="M96.01,110c-2.93,0-5.24-1.04-6.93-3.12-1.69-2.08-2.54-5.03-2.54-8.85s.76-6.9,2.29-9.07,3.66-3.26,6.4-3.26c2.55,0,4.57,.93,6.04,2.79,1.47,1.86,2.21,4.47,2.21,7.82v2.99h-11.26c.04,2.09,.47,3.64,1.28,4.66,.81,1.02,1.94,1.53,3.37,1.53,1.82,0,3.69-.57,5.6-1.7v4.61c-1.8,1.08-3.95,1.62-6.46,1.62Zm-.82-19.99c-.8,0-1.46,.42-1.98,1.27-.52,.85-.82,2.16-.9,3.95h5.68c-.03-1.71-.29-3.01-.78-3.89-.49-.88-1.17-1.33-2.02-1.33Z"/><path class="cls-1" d="M118.86,109.58v-13.97c0-1.7-.2-2.98-.61-3.85-.41-.87-1.07-1.3-1.98-1.3-1.21,0-2.09,.6-2.65,1.8-.56,1.2-.84,3.22-.84,6.07v11.26h-5.6v-23.44h4.44l.67,3.01h.36c.5-1.08,1.23-1.93,2.17-2.54,.94-.61,2.04-.92,3.3-.92,2.13,0,3.73,.73,4.79,2.19,1.06,1.46,1.59,3.59,1.59,6.4v15.3h-5.64Z"/><path class="cls-1" d="M145.91,86.17v3.28l-2.8,.63c.55,.98,.82,2.22,.82,3.7,0,2.48-.67,4.43-2.02,5.83-1.35,1.4-3.23,2.1-5.64,2.1-.7,0-1.22-.06-1.56-.17-.27,.24-.52,.5-.76,.8-.24,.29-.36,.66-.36,1.09,0,.98,.85,1.47,2.55,1.47h3.39c1.99,0,3.53,.54,4.6,1.61s1.61,2.69,1.61,4.85c0,2.72-.91,4.83-2.74,6.31-1.82,1.49-4.45,2.23-7.87,2.23-2.6,0-4.59-.56-6-1.69s-2.1-2.74-2.1-4.83c0-1.3,.4-2.45,1.2-3.44,.8-.99,1.91-1.71,3.33-2.16-.72-.28-1.3-.72-1.76-1.31s-.68-1.28-.68-2.06c0-.48,.07-.91,.21-1.29s.34-.75,.6-1.09c.26-.34,.79-.85,1.59-1.53-.97-.59-1.73-1.49-2.29-2.71-.56-1.22-.84-2.57-.84-4.06,0-2.57,.67-4.55,2.02-5.96,1.35-1.4,3.28-2.1,5.79-2.1,.48,0,1.02,.05,1.64,.16,.62,.1,1.09,.21,1.41,.33h6.67Zm-13.79,26.81c0,.93,.29,1.64,.87,2.14,.58,.5,1.41,.75,2.49,.75,1.7,0,2.97-.32,3.82-.97,.85-.65,1.27-1.53,1.27-2.65,0-.88-.23-1.51-.68-1.87-.46-.37-1.31-.55-2.56-.55h-2.71c-.76,0-1.37,.28-1.82,.85-.46,.57-.68,1.34-.68,2.3Zm1.73-19.19c0,2.76,.78,4.15,2.34,4.15s2.27-1.4,2.27-4.19-.76-4.29-2.27-4.29-2.34,1.45-2.34,4.34Z"/><path class="cls-1" d="M157.38,110c-2.93,0-5.24-1.04-6.93-3.12s-2.54-5.03-2.54-8.85,.76-6.9,2.29-9.07,3.66-3.26,6.4-3.26c2.55,0,4.57,.93,6.04,2.79,1.47,1.86,2.21,4.47,2.21,7.82v2.99h-11.26c.04,2.09,.47,3.64,1.28,4.66,.81,1.02,1.94,1.53,3.37,1.53,1.82,0,3.69-.57,5.6-1.7v4.61c-1.8,1.08-3.95,1.62-6.46,1.62Zm-.82-19.99c-.8,0-1.46,.42-1.98,1.27-.52,.85-.82,2.16-.91,3.95h5.68c-.03-1.71-.29-3.01-.78-3.89-.49-.88-1.17-1.33-2.02-1.33Z"/></g><g><path class="cls-1" d="M240.45,238.28c0,3.27-.83,5.78-2.47,7.52-1.65,1.75-4.03,2.62-7.14,2.62h-1.43v11.15h-5.72v-30.77h7.81c5.98,0,8.97,3.16,8.97,9.47Zm-11.05,5.18h1.09c1.4,0,2.45-.39,3.14-1.16,.69-.77,1.03-2.03,1.03-3.79,0-1.61-.32-2.81-.95-3.59-.63-.78-1.61-1.17-2.92-1.17h-1.39v9.7Z"/><path class="cls-1" d="M255.48,259.58l-1.12-3.2h-.13c-.83,1.38-1.68,2.32-2.57,2.84-.88,.52-2,.78-3.35,.78-1.73,0-3.08-.65-4.07-1.94s-1.48-3.09-1.48-5.39c0-2.47,.68-4.3,2.03-5.5,1.35-1.2,3.38-1.86,6.07-1.99l3.11-.13v-1.68c0-2.19-.95-3.28-2.84-3.28-1.4,0-3.02,.55-4.84,1.64l-1.94-3.87c2.33-1.47,4.86-2.21,7.6-2.21,2.48,0,4.37,.71,5.67,2.14,1.3,1.42,1.95,3.44,1.95,6.05v15.74h-4.1Zm-4.86-3.96c1.02,0,1.84-.46,2.45-1.38s.92-2.14,.92-3.67v-1.98l-1.73,.08c-1.28,.07-2.21,.44-2.81,1.09-.6,.66-.89,1.64-.89,2.95,0,1.94,.69,2.9,2.06,2.9Z"/><path class="cls-1" d="M276.69,252.72c0,2.29-.67,4.07-2.01,5.36-1.34,1.28-3.32,1.93-5.92,1.93-2.31,0-4.23-.46-5.75-1.37v-4.86c.77,.53,1.67,.98,2.7,1.33,1.03,.35,1.94,.53,2.73,.53,.87,0,1.53-.21,1.99-.64,.46-.43,.68-.99,.68-1.69s-.24-1.34-.72-1.87c-.48-.53-1.35-1.19-2.63-1.96-1.7-1.01-2.92-2.09-3.65-3.23-.74-1.14-1.1-2.49-1.1-4.05,0-1.99,.68-3.57,2.05-4.73s3.24-1.75,5.63-1.75c2.08,0,4.03,.55,5.87,1.64l-1.83,4.02c-1.5-.81-2.82-1.22-3.96-1.22-.72,0-1.25,.19-1.61,.57-.36,.38-.54,.84-.54,1.39,0,.63,.22,1.19,.66,1.68,.44,.49,1.27,1.1,2.47,1.83,1.46,.88,2.48,1.63,3.07,2.25,.59,.62,1.04,1.32,1.37,2.1,.32,.79,.48,1.7,.48,2.76Z"/><path class="cls-1" d="M292.81,252.72c0,2.29-.67,4.07-2.01,5.36s-3.31,1.93-5.92,1.93c-2.32,0-4.23-.46-5.75-1.37v-4.86c.77,.53,1.67,.98,2.71,1.33,1.03,.35,1.94,.53,2.72,.53,.87,0,1.53-.21,1.99-.64,.46-.43,.68-.99,.68-1.69s-.24-1.34-.71-1.87c-.48-.53-1.35-1.19-2.63-1.96-1.7-1.01-2.92-2.09-3.65-3.23-.74-1.14-1.11-2.49-1.11-4.05,0-1.99,.68-3.57,2.05-4.73,1.37-1.16,3.24-1.75,5.63-1.75,2.08,0,4.03,.55,5.87,1.64l-1.83,4.02c-1.5-.81-2.82-1.22-3.96-1.22-.71,0-1.25,.19-1.61,.57-.36,.38-.54,.84-.54,1.39,0,.63,.22,1.19,.66,1.68,.44,.49,1.27,1.1,2.47,1.83,1.46,.88,2.48,1.63,3.07,2.25,.59,.62,1.04,1.32,1.37,2.1,.32,.79,.48,1.7,.48,2.76Z"/><path class="cls-1" d="M296.16,230.01c0-.93,.27-1.66,.81-2.2,.54-.54,1.29-.81,2.26-.81,.91,0,1.64,.27,2.19,.81,.55,.54,.82,1.27,.82,2.2s-.28,1.69-.84,2.22c-.56,.53-1.28,.79-2.17,.79s-1.67-.26-2.23-.79c-.56-.53-.84-1.27-.84-2.22Zm5.83,29.57h-5.6v-23.44h5.6v23.44Z"/><path class="cls-1" d="M324.15,247.81c0,3.84-.81,6.84-2.44,8.98-1.63,2.14-3.86,3.21-6.69,3.21-1.8,0-3.38-.49-4.76-1.47-1.38-.98-2.43-2.4-3.18-4.24-.74-1.84-1.12-4-1.12-6.47,0-3.8,.81-6.77,2.42-8.91,1.61-2.14,3.85-3.21,6.71-3.21s4.96,1.09,6.6,3.27,2.45,5.13,2.45,8.85Zm-12.46,0c0,2.44,.27,4.29,.8,5.53,.53,1.25,1.39,1.87,2.57,1.87,2.24,0,3.37-2.47,3.37-7.41,0-2.46-.27-4.29-.81-5.5s-1.39-1.82-2.56-1.82-2.04,.61-2.57,1.82c-.53,1.21-.8,3.05-.8,5.5Z"/><path class="cls-1" d="M339.76,259.58v-13.97c0-1.7-.2-2.98-.61-3.85-.41-.87-1.07-1.3-1.98-1.3-1.21,0-2.09,.6-2.65,1.8-.56,1.2-.84,3.22-.84,6.07v11.26h-5.6v-23.44h4.44l.67,3.01h.36c.5-1.08,1.23-1.93,2.17-2.54,.94-.61,2.04-.92,3.3-.92,2.13,0,3.73,.73,4.79,2.19,1.06,1.46,1.59,3.59,1.59,6.4v15.3h-5.64Z"/></g></g></svg>