<?xml version="1.0" encoding="UTF-8"?><svg id="Layer_2" xmlns="http://www.w3.org/2000/svg" width="1065.89" height="779" xmlns:xlink="http://www.w3.org/1999/xlink" viewBox="0 0 1065.89 779"><defs><style>.cls-1{fill:none;}.cls-2{clip-path:url(#clippath);}.cls-3{clip-path:url(#clippath-1);}</style><clipPath id="clippath"><path class="cls-1" d="M152.33,500v-44.47c0-33.78,6.88-62.3,20.66-85.56,13.77-23.27,38.2-45.94,73.31-68,27.88-17.58,47.94-33.44,60.16-47.56s18.33-30.33,18.33-48.61c0-14.39-6.55-25.78-19.62-34.19-13.09-8.41-30.12-12.61-51.11-12.61-51.98,0-112.75,18.44-182.28,55.28L0,73.55C85.72,24.52,175.23,0,268.55,0c76.78,0,137.03,16.89,180.75,50.67s65.59,79.81,65.59,138.06c0,41.72-9.73,77.83-29.17,108.33-19.45,30.5-50.52,59.38-93.2,86.59-36.16,23.45-58.78,40.61-67.91,51.45-9.12,10.86-13.67,23.7-13.67,38.52v26.38H152.33Zm-22.2,180.27c0-31.7,9.2-56.17,27.64-73.41,18.42-17.23,45.55-25.86,81.36-25.86s60.86,8.7,79.3,26.11c18.42,17.41,27.64,41.8,27.64,73.16s-9.56,55.66-28.67,72.89c-19.12,17.22-45.2,25.84-78.27,25.84s-60.8-8.53-80.08-25.59-28.92-41.44-28.92-73.14Z"/></clipPath><clipPath id="clippath-1"><path class="cls-1" d="M703.33,500v-44.47c0-33.78,6.88-62.3,20.66-85.56,13.77-23.27,38.2-45.94,73.31-68,27.88-17.58,47.94-33.44,60.16-47.56s18.33-30.33,18.33-48.61c0-14.39-6.55-25.78-19.62-34.19-13.09-8.41-30.12-12.61-51.11-12.61-51.98,0-112.75,18.44-182.28,55.28l-71.77-140.73C636.72,24.52,726.23,0,819.55,0c76.78,0,137.03,16.89,180.75,50.67s65.59,79.81,65.59,138.06c0,41.72-9.73,77.83-29.17,108.33-19.45,30.5-50.52,59.38-93.2,86.59-36.16,23.45-58.78,40.61-67.91,51.45-9.12,10.86-13.67,23.7-13.67,38.52v26.38h-158.61Zm-22.2,180.27c0-31.7,9.2-56.17,27.64-73.41,18.42-17.23,45.55-25.86,81.36-25.86s60.86,8.7,79.3,26.11c18.42,17.41,27.64,41.8,27.64,73.16s-9.56,55.66-28.67,72.89c-19.12,17.22-45.2,25.84-78.27,25.84s-60.8-8.53-80.08-25.59-28.92-41.44-28.92-73.14Z"/></clipPath><image id="image" width="1920" height="1280" xlink:href="godt-arbejde.jpg"/></defs><g id="Layer_1-2"><g class="cls-2"><use transform="translate(-128.68 -146.01) scale(.78)" xlink:href="#image"/></g><g class="cls-3"><use transform="translate(-70.68 -185.01) scale(.78)" xlink:href="#image"/></g></g></svg>