<?xml version="1.0" encoding="utf-8"?>
<!-- Generator: Adobe Illustrator 26.5.0, SVG Export Plug-In . SVG Version: 6.00 Build 0)  -->
<svg version="1.1" id="Layer_2_00000005985889416618545620000017344426084955972026_"
	 xmlns="http://www.w3.org/2000/svg" xmlns:xlink="http://www.w3.org/1999/xlink" x="0px" y="0px" viewBox="0 0 1065.9 779"
	 style="enable-background:new 0 0 1065.9 779;" xml:space="preserve">
<g>
	<defs>
		<path id="SVGID_1_" d="M152.3,500v-44.5c0-33.8,6.9-62.3,20.7-85.6c13.8-23.3,38.2-45.9,73.3-68c27.9-17.6,47.9-33.4,60.2-47.6
			s18.3-30.3,18.3-48.6c0-14.4-6.5-25.8-19.6-34.2c-13.1-8.4-30.1-12.6-51.1-12.6c-52,0-112.8,18.4-182.3,55.3L0,73.6
			C85.7,24.5,175.2,0,268.5,0c76.8,0,137,16.9,180.8,50.7s65.6,79.8,65.6,138.1c0,41.7-9.7,77.8-29.2,108.3
			c-19.5,30.5-50.5,59.4-93.2,86.6c-36.2,23.5-58.8,40.6-67.9,51.5c-9.1,10.9-13.7,23.7-13.7,38.5V500H152.3z M130.1,680.3
			c0-31.7,9.2-56.2,27.6-73.4c18.4-17.2,45.6-25.9,81.4-25.9s60.9,8.7,79.3,26.1c18.4,17.4,27.6,41.8,27.6,73.2s-9.6,55.7-28.7,72.9
			c-19.1,17.2-45.2,25.8-78.3,25.8s-60.8-8.5-80.1-25.6S130.1,712,130.1,680.3z"/>
	</defs>
	<clipPath id="SVGID_00000117641805139826973440000008488314300843678353_">
		<use xlink:href="#SVGID_1_"  style="overflow:visible;"/>
	</clipPath>
	
		<g transform="matrix(1 0 0 1 0 -7.629395e-06)" style="clip-path:url(#SVGID_00000117641805139826973440000008488314300843678353_);">
		
			<image style="overflow:visible;" width="1920" height="1280" xlink:href="../../../Webfeature/godt-arbejde.jpg"  transform="matrix(0.6937 0 0 0.6937 -114.9605 -108.9607)">
		</image>
	</g>
</g>
<g>
	<defs>
		<path id="SVGID_00000007430188047197460680000010161908743620992167_" d="M703.3,500v-44.5c0-33.8,6.9-62.3,20.7-85.6
			c13.8-23.3,38.2-45.9,73.3-68c27.9-17.6,47.9-33.4,60.2-47.6s18.3-30.3,18.3-48.6c0-14.4-6.5-25.8-19.6-34.2
			c-13.1-8.4-30.1-12.6-51.1-12.6c-52,0-112.8,18.4-182.3,55.3L551,73.6C636.7,24.5,726.2,0,819.5,0c76.8,0,137,16.9,180.8,50.7
			s65.6,79.8,65.6,138.1c0,41.7-9.7,77.8-29.2,108.3c-19.5,30.5-50.5,59.4-93.2,86.6c-36.2,23.5-58.8,40.6-67.9,51.5
			c-9.1,10.9-13.7,23.7-13.7,38.5V500H703.3z M681.1,680.3c0-31.7,9.2-56.2,27.6-73.4c18.4-17.2,45.5-25.9,81.4-25.9
			s60.9,8.7,79.3,26.1c18.4,17.4,27.6,41.8,27.6,73.2s-9.6,55.7-28.7,72.9c-19.1,17.2-45.2,25.8-78.3,25.8s-60.8-8.5-80.1-25.6
			S681.1,712,681.1,680.3z"/>
	</defs>
	<clipPath id="SVGID_00000019664791679121155800000012550874289722218426_">
		<use xlink:href="#SVGID_00000007430188047197460680000010161908743620992167_"  style="overflow:visible;"/>
	</clipPath>
	<g transform="matrix(1 0 0 1 0 0)" style="clip-path:url(#SVGID_00000019664791679121155800000012550874289722218426_);">
		
			<image style="overflow:visible;" width="1920" height="1280" xlink:href="../../../Webfeature/godt-arbejde.jpg"  transform="matrix(0.7854 0 0 0.7854 -221.0458 -226.321)">
		</image>
	</g>
</g>
</svg>
